<svg width="46" height="46" viewBox="0 0 46 46" fill="none" xmlns="http://www.w3.org/2000/svg">
<path fill-rule="evenodd" clip-rule="evenodd" d="M21.7044 3.51898C21.034 3.51898 20.4637 3.9848 20.3037 4.61265H25.6863C25.5263 3.9848 24.956 3.51898 24.2856 3.51898H21.7044ZM27.2071 4.61264H29.1881C31.2891 4.61264 33 6.34428 33 8.47085C33 8.47085 32.94 9.3711 32.92 10.6248C32.918 10.724 32.8699 10.8212 32.7909 10.88C32.3097 11.2354 31.8694 11.5291 31.8294 11.5493C30.1686 12.6632 28.2386 13.447 26.1826 13.8369C26.0485 13.8632 25.9165 13.7934 25.8484 13.6739C25.2721 12.6754 24.1956 12.0253 22.995 12.0253C21.8024 12.0253 20.7159 12.6683 20.1226 13.6678C20.0535 13.7853 19.9235 13.8531 19.7904 13.8278C17.7514 13.4369 15.8214 12.6541 14.1706 11.5594L13.2101 10.8911C13.1301 10.8405 13.08 10.7493 13.08 10.6481C13.05 10.1316 13 8.47085 13 8.47085C13 6.34428 14.7109 4.61264 16.8119 4.61264H18.7829C18.973 3.1443 20.2036 2 21.7044 2H24.2856C25.7864 2 27.017 3.1443 27.2071 4.61264ZM32.6598 12.8152L32.6198 12.8355C30.5988 14.1924 28.1676 15.0937 25.6163 15.4684C25.2561 15.519 24.8959 15.2861 24.7959 14.9216C24.5758 14.0912 23.8654 13.5443 23.015 13.5443H23.005H22.985C22.1346 13.5443 21.4242 14.0912 21.2041 14.9216C21.1041 15.2861 20.7439 15.519 20.3837 15.4684C17.8324 15.0937 15.4012 14.1924 13.3802 12.8355C13.3702 12.8254 13.2701 12.7646 13.1901 12.8152C13.1001 12.8659 13.1001 12.9874 13.1001 12.9874L13.1701 18.1519C13.1701 20.2785 14.8709 22 16.972 22H29.018C31.1191 22 32.8199 20.2785 32.8199 18.1519L32.9 12.9874C32.9 12.9874 32.9 12.8659 32.8099 12.8152C32.7599 12.7849 32.6999 12.795 32.6598 12.8152ZM23.7454 17.0583C23.7454 17.4836 23.4152 17.8177 22.995 17.8177C22.5848 17.8177 22.2446 17.4836 22.2446 17.0583V15.7519C22.2446 15.3367 22.5848 14.9924 22.995 14.9924C23.4152 14.9924 23.7454 15.3367 23.7454 15.7519V17.0583Z" fill="#1B2124"/>
<path d="M0.132 43L3.336 34.06H4.728L7.932 43H6.672L5.94 40.9H2.124L1.392 43H0.132ZM2.496 39.82H5.568L3.864 34.912H4.2L2.496 39.82ZM8.9265 45.4V36.532H10.0185V37.924L9.8745 37.648C10.1145 37.264 10.4425 36.96 10.8585 36.736C11.2745 36.504 11.7505 36.388 12.2865 36.388C12.8945 36.388 13.4385 36.536 13.9185 36.832C14.4065 37.128 14.7905 37.532 15.0705 38.044C15.3505 38.548 15.4905 39.124 15.4905 39.772C15.4905 40.404 15.3505 40.976 15.0705 41.488C14.7905 42 14.4065 42.404 13.9185 42.7C13.4385 42.996 12.8905 43.144 12.2745 43.144C11.7545 43.144 11.2785 43.028 10.8465 42.796C10.4225 42.564 10.0945 42.236 9.8625 41.812L10.0425 41.62V45.4H8.9265ZM12.1905 42.064C12.5985 42.064 12.9625 41.964 13.2825 41.764C13.6025 41.564 13.8505 41.292 14.0265 40.948C14.2105 40.596 14.3025 40.204 14.3025 39.772C14.3025 39.324 14.2105 38.932 14.0265 38.596C13.8505 38.252 13.6025 37.98 13.2825 37.78C12.9625 37.572 12.5985 37.468 12.1905 37.468C11.7825 37.468 11.4145 37.568 11.0865 37.768C10.7665 37.968 10.5105 38.244 10.3185 38.596C10.1345 38.94 10.0425 39.332 10.0425 39.772C10.0425 40.204 10.1345 40.596 10.3185 40.948C10.5105 41.292 10.7665 41.564 11.0865 41.764C11.4145 41.964 11.7825 42.064 12.1905 42.064ZM16.9538 45.4V36.532H18.0458V37.924L17.9018 37.648C18.1418 37.264 18.4698 36.96 18.8858 36.736C19.3018 36.504 19.7778 36.388 20.3138 36.388C20.9218 36.388 21.4658 36.536 21.9458 36.832C22.4338 37.128 22.8178 37.532 23.0978 38.044C23.3778 38.548 23.5178 39.124 23.5178 39.772C23.5178 40.404 23.3778 40.976 23.0978 41.488C22.8178 42 22.4338 42.404 21.9458 42.7C21.4658 42.996 20.9178 43.144 20.3018 43.144C19.7818 43.144 19.3058 43.028 18.8738 42.796C18.4498 42.564 18.1218 42.236 17.8898 41.812L18.0698 41.62V45.4H16.9538ZM20.2178 42.064C20.6258 42.064 20.9898 41.964 21.3098 41.764C21.6298 41.564 21.8778 41.292 22.0538 40.948C22.2378 40.596 22.3298 40.204 22.3298 39.772C22.3298 39.324 22.2378 38.932 22.0538 38.596C21.8778 38.252 21.6298 37.98 21.3098 37.78C20.9898 37.572 20.6258 37.468 20.2178 37.468C19.8098 37.468 19.4418 37.568 19.1138 37.768C18.7938 37.968 18.5378 38.244 18.3458 38.596C18.1618 38.94 18.0698 39.332 18.0698 39.772C18.0698 40.204 18.1618 40.596 18.3458 40.948C18.5378 41.292 18.7938 41.564 19.1138 41.764C19.4418 41.964 19.8098 42.064 20.2178 42.064ZM24.9812 43V33.916H26.0972V43H24.9812ZM27.8288 43V36.532H28.9448V43H27.8288ZM27.8288 35.5V34.06H28.9448V35.5H27.8288ZM33.6525 43.144C33.0285 43.144 32.4725 42.996 31.9845 42.7C31.4965 42.404 31.1125 42 30.8325 41.488C30.5525 40.968 30.4125 40.388 30.4125 39.748C30.4125 39.1 30.5485 38.524 30.8205 38.02C31.1005 37.516 31.4765 37.12 31.9485 36.832C32.4285 36.536 32.9645 36.388 33.5565 36.388C34.0365 36.388 34.4605 36.476 34.8285 36.652C35.2045 36.82 35.5205 37.052 35.7765 37.348C36.0405 37.636 36.2405 37.968 36.3765 38.344C36.5205 38.712 36.5925 39.096 36.5925 39.496C36.5925 39.584 36.5845 39.684 36.5685 39.796C36.5605 39.9 36.5485 40 36.5325 40.096H31.2285V39.136H35.8845L35.3565 39.568C35.4285 39.152 35.3885 38.78 35.2365 38.452C35.0845 38.124 34.8605 37.864 34.5645 37.672C34.2685 37.48 33.9325 37.384 33.5565 37.384C33.1805 37.384 32.8365 37.48 32.5245 37.672C32.2125 37.864 31.9685 38.14 31.7925 38.5C31.6245 38.852 31.5565 39.272 31.5885 39.76C31.5565 40.232 31.6285 40.648 31.8045 41.008C31.9885 41.36 32.2445 41.636 32.5725 41.836C32.9085 42.028 33.2725 42.124 33.6645 42.124C34.0965 42.124 34.4605 42.024 34.7565 41.824C35.0525 41.624 35.2925 41.368 35.4765 41.056L36.4125 41.536C36.2845 41.832 36.0845 42.104 35.8125 42.352C35.5485 42.592 35.2325 42.784 34.8645 42.928C34.5045 43.072 34.1005 43.144 33.6525 43.144ZM40.9876 43.144C40.3796 43.144 39.8316 42.996 39.3436 42.7C38.8636 42.404 38.4836 42 38.2036 41.488C37.9236 40.976 37.7836 40.404 37.7836 39.772C37.7836 39.124 37.9236 38.548 38.2036 38.044C38.4836 37.532 38.8636 37.128 39.3436 36.832C39.8316 36.536 40.3796 36.388 40.9876 36.388C41.5236 36.388 41.9996 36.504 42.4156 36.736C42.8316 36.96 43.1596 37.264 43.3996 37.648L43.2196 37.924V33.916H44.3476V43H43.2556V41.62L43.3996 41.812C43.1756 42.236 42.8476 42.564 42.4156 42.796C41.9916 43.028 41.5156 43.144 40.9876 43.144ZM41.0836 42.064C41.4916 42.064 41.8556 41.964 42.1756 41.764C42.4956 41.564 42.7476 41.292 42.9316 40.948C43.1236 40.596 43.2196 40.204 43.2196 39.772C43.2196 39.332 43.1236 38.94 42.9316 38.596C42.7476 38.244 42.4956 37.968 42.1756 37.768C41.8556 37.568 41.4916 37.468 41.0836 37.468C40.6836 37.468 40.3196 37.572 39.9916 37.78C39.6716 37.98 39.4196 38.252 39.2356 38.596C39.0516 38.932 38.9596 39.324 38.9596 39.772C38.9596 40.204 39.0516 40.596 39.2356 40.948C39.4196 41.292 39.6716 41.564 39.9916 41.764C40.3116 41.964 40.6756 42.064 41.0836 42.064Z" fill="#1B2124"/>
</svg>
