<svg width="24" height="24" viewBox="0 0 24 24" fill="none" xmlns="http://www.w3.org/2000/svg">
<path d="M2.80411 15.477C2.80411 15.477 2.94611 17.215 2.97911 17.763C3.02311 18.498 3.30711 19.319 3.78111 19.889C4.45011 20.697 5.23811 20.982 6.29011 20.984C7.52711 20.986 16.5221 20.986 17.7591 20.984C18.8111 20.982 19.5991 20.697 20.2681 19.889C20.7421 19.319 21.0261 18.498 21.0711 17.763C21.1031 17.215 21.2451 15.477 21.2451 15.477" stroke="#7F879E" stroke-width="1.5" stroke-linecap="round" stroke-linejoin="round"/>
<path d="M8.496 5.3295V4.9585C8.496 3.7385 9.484 2.7505 10.704 2.7505H13.286C14.505 2.7505 15.494 3.7385 15.494 4.9585L15.495 5.3295" stroke="#7F879E" stroke-width="1.5" stroke-linecap="round" stroke-linejoin="round"/>
<path d="M11.995 16.6782V15.3842" stroke="#7F879E" stroke-width="1.5" stroke-linecap="round" stroke-linejoin="round"/>
<path fill-rule="evenodd" clip-rule="evenodd" d="M2.74991 8.3891V11.8561C4.66791 13.1211 6.96591 14.0071 9.48791 14.3581C9.78991 13.2571 10.7829 12.4501 11.9899 12.4501C13.1779 12.4501 14.1909 13.2571 14.4729 14.3681C17.0049 14.0171 19.3119 13.1311 21.2399 11.8561V8.3891C21.2399 6.6951 19.8769 5.3311 18.1829 5.3311H5.81691C4.12291 5.3311 2.74991 6.6951 2.74991 8.3891Z" stroke="#7F879E" stroke-width="1.5" stroke-linecap="round" stroke-linejoin="round"/>
</svg>
