<svg width="48" height="48" viewBox="0 0 48 48" fill="none" xmlns="http://www.w3.org/2000/svg">
<rect width="48" height="48" rx="10" fill="#F8F8FD"/>
<path d="M32.317 16.1556C30.7873 15.4537 29.147 14.9366 27.4319 14.6404C27.4007 14.6347 27.3695 14.649 27.3534 14.6776C27.1424 15.0528 26.9087 15.5423 26.7451 15.927C24.9004 15.6509 23.0652 15.6509 21.2583 15.927C21.0946 15.5337 20.8525 15.0528 20.6406 14.6776C20.6245 14.6499 20.5933 14.6357 20.5621 14.6404C18.8479 14.9357 17.2076 15.4528 15.6769 16.1556C15.6637 16.1613 15.6523 16.1708 15.6448 16.1832C12.5334 20.8316 11.681 25.3657 12.0992 29.8436C12.1011 29.8655 12.1134 29.8864 12.1304 29.8998C14.1832 31.4073 16.1717 32.3225 18.1233 32.9291C18.1545 32.9387 18.1876 32.9272 18.2075 32.9015C18.6691 32.2711 19.0806 31.6064 19.4335 30.9073C19.4543 30.8664 19.4344 30.8178 19.3919 30.8016C18.7391 30.554 18.1176 30.2521 17.5197 29.9093C17.4724 29.8817 17.4687 29.814 17.5122 29.7816C17.638 29.6874 17.7638 29.5893 17.884 29.4902C17.9057 29.4721 17.936 29.4683 17.9615 29.4798C21.8893 31.273 26.1415 31.273 30.023 29.4798C30.0485 29.4674 30.0788 29.4712 30.1015 29.4893C30.2216 29.5883 30.3475 29.6874 30.4742 29.7816C30.5177 29.814 30.5149 29.8817 30.4676 29.9093C29.8697 30.2588 29.2482 30.554 28.5945 30.8007C28.552 30.8169 28.533 30.8664 28.5538 30.9073C28.9143 31.6054 29.3258 32.2701 29.7789 32.9006C29.7978 32.9272 29.8319 32.9387 29.8631 32.9291C31.8241 32.3225 33.8126 31.4073 35.8654 29.8998C35.8834 29.8864 35.8948 29.8664 35.8967 29.8445C36.3971 24.6676 35.0585 20.1707 32.3482 16.1842C32.3416 16.1708 32.3303 16.1613 32.317 16.1556ZM20.02 27.117C18.8375 27.117 17.8631 26.0314 17.8631 24.6981C17.8631 23.3648 18.8186 22.2791 20.02 22.2791C21.2309 22.2791 22.1958 23.3743 22.1769 24.6981C22.1769 26.0314 21.2214 27.117 20.02 27.117ZM27.9947 27.117C26.8123 27.117 25.8379 26.0314 25.8379 24.6981C25.8379 23.3648 26.7933 22.2791 27.9947 22.2791C29.2056 22.2791 30.1705 23.3743 30.1516 24.6981C30.1516 26.0314 29.2056 27.117 27.9947 27.117Z" fill="#3860E2"/>
</svg>
