<svg width="48" height="48" viewBox="0 0 48 48" fill="none" xmlns="http://www.w3.org/2000/svg">
<rect width="48" height="48" rx="10" fill="#F8F8FD"/>
<g clip-path="url(#clip0_105_21)">
<path d="M24 36C30.6274 36 36 30.6274 36 24C36 17.3726 30.6274 12 24 12C17.3726 12 12 17.3726 12 24C12 30.6274 17.3726 36 24 36Z" fill="#F8F8FD"/>
<path d="M24 12C17.3728 12 12 17.3728 12 24C12 29.0864 15.1605 33.4321 19.6247 35.1802C19.516 34.2321 19.4272 32.7704 19.6642 31.7333C19.8815 30.7951 21.0667 25.7679 21.0667 25.7679C21.0667 25.7679 20.7111 25.0469 20.7111 23.9901C20.7111 22.321 21.679 21.0765 22.884 21.0765C23.9111 21.0765 24.4049 21.8469 24.4049 22.7654C24.4049 23.7926 23.7531 25.3333 23.4074 26.7654C23.121 27.9605 24.0099 28.9383 25.1852 28.9383C27.3185 28.9383 28.958 26.6864 28.958 23.4469C28.958 20.5728 26.8938 18.5679 23.9407 18.5679C20.5235 18.5679 18.5185 21.1259 18.5185 23.7728C18.5185 24.8 18.9136 25.9062 19.4074 26.5086C19.5062 26.6272 19.516 26.7358 19.4864 26.8543C19.3975 27.2296 19.1901 28.0494 19.1506 28.2173C19.1012 28.4346 18.9728 28.484 18.7457 28.3753C17.2444 27.6741 16.3062 25.4914 16.3062 23.7235C16.3062 19.9407 19.0519 16.4642 24.237 16.4642C28.3951 16.4642 31.6346 19.4272 31.6346 23.3975C31.6346 27.5358 29.0272 30.8642 25.4123 30.8642C24.1975 30.8642 23.0519 30.2321 22.6667 29.4815C22.6667 29.4815 22.0642 31.7728 21.916 32.3358C21.6494 33.3827 20.9185 34.6864 20.4247 35.4864C21.5506 35.8321 22.7358 36.0198 23.9802 36.0198C30.6074 36.0198 35.9802 30.6469 35.9802 24.0198C36 17.3728 30.6272 12 24 12Z" fill="#E60019"/>
</g>
<defs>
<clipPath id="clip0_105_21">
<rect width="24" height="24" fill="white" transform="translate(12 12)"/>
</clipPath>
</defs>
</svg>
