<svg width="37" height="46" viewBox="0 0 37 46" fill="none" xmlns="http://www.w3.org/2000/svg">
<path d="M19.39 5.88H11.61C9.89999 5.88 8.5 7.27999 8.5 8.98999V20.35C8.5 21.8 9.54 22.42 10.81 21.71L14.74 19.52C15.16 19.29 15.84 19.29 16.25 19.52L20.18 21.71C21.45 22.42 22.49 21.8 22.49 20.35V8.98999C22.5 7.27999 21.1 5.88 19.39 5.88Z" stroke="#7F879E" stroke-width="1.5" stroke-linecap="round" stroke-linejoin="round"/>
<path d="M22.5 8.98999V20.35C22.5 21.8 21.46 22.41 20.19 21.71L16.26 19.52C15.84 19.29 15.16 19.29 14.74 19.52L10.81 21.71C9.54 22.41 8.5 21.8 8.5 20.35V8.98999C8.5 7.27999 9.89999 5.88 11.61 5.88H19.39C21.1 5.88 22.5 7.27999 22.5 8.98999Z" stroke="#7F879E" stroke-width="1.5" stroke-linecap="round" stroke-linejoin="round"/>
<path d="M28.5 5.10999V16.47C28.5 17.92 27.46 18.53 26.19 17.83L22.5 15.77V8.98999C22.5 7.27999 21.1 5.88 19.39 5.88H14.5V5.10999C14.5 3.39999 15.9 2 17.61 2H25.39C27.1 2 28.5 3.39999 28.5 5.10999Z" stroke="#7F879E" stroke-width="1.5" stroke-linecap="round" stroke-linejoin="round"/>
<path d="M4.068 43.144C3.5 43.144 2.98 43.04 2.508 42.832C2.036 42.616 1.636 42.324 1.308 41.956C0.98 41.588 0.744 41.176 0.6 40.72L1.62 40.3C1.836 40.876 2.156 41.32 2.58 41.632C3.012 41.936 3.516 42.088 4.092 42.088C4.444 42.088 4.752 42.032 5.016 41.92C5.28 41.808 5.484 41.652 5.628 41.452C5.78 41.244 5.856 41.004 5.856 40.732C5.856 40.356 5.748 40.06 5.532 39.844C5.324 39.62 5.016 39.452 4.608 39.34L2.964 38.836C2.316 38.636 1.82 38.32 1.476 37.888C1.132 37.456 0.96 36.96 0.96 36.4C0.96 35.912 1.076 35.484 1.308 35.116C1.548 34.74 1.876 34.448 2.292 34.24C2.716 34.024 3.196 33.916 3.732 33.916C4.268 33.916 4.752 34.012 5.184 34.204C5.624 34.396 5.996 34.656 6.3 34.984C6.604 35.304 6.828 35.672 6.972 36.088L5.964 36.508C5.772 36.004 5.484 35.624 5.1 35.368C4.716 35.104 4.264 34.972 3.744 34.972C3.424 34.972 3.14 35.028 2.892 35.14C2.652 35.244 2.464 35.4 2.328 35.608C2.2 35.808 2.136 36.048 2.136 36.328C2.136 36.656 2.24 36.948 2.448 37.204C2.656 37.46 2.972 37.656 3.396 37.792L4.896 38.236C5.6 38.452 6.132 38.76 6.492 39.16C6.852 39.56 7.032 40.056 7.032 40.648C7.032 41.136 6.904 41.568 6.648 41.944C6.4 42.32 6.052 42.616 5.604 42.832C5.164 43.04 4.652 43.144 4.068 43.144ZM10.342 43.144C9.91803 43.144 9.54203 43.068 9.21403 42.916C8.89403 42.756 8.64203 42.54 8.45803 42.268C8.27403 41.988 8.18203 41.668 8.18203 41.308C8.18203 40.964 8.25403 40.656 8.39803 40.384C8.55003 40.104 8.78203 39.868 9.09403 39.676C9.41403 39.484 9.81403 39.348 10.294 39.268L12.694 38.872V39.808L10.546 40.168C10.13 40.24 9.82603 40.372 9.63403 40.564C9.45003 40.756 9.35803 40.992 9.35803 41.272C9.35803 41.536 9.46203 41.756 9.67003 41.932C9.88603 42.108 10.154 42.196 10.474 42.196C10.882 42.196 11.234 42.112 11.53 41.944C11.834 41.768 12.07 41.532 12.238 41.236C12.414 40.94 12.502 40.612 12.502 40.252V38.608C12.502 38.256 12.37 37.972 12.106 37.756C11.85 37.532 11.51 37.42 11.086 37.42C10.718 37.42 10.39 37.516 10.102 37.708C9.82203 37.892 9.61403 38.14 9.47803 38.452L8.50603 37.948C8.62603 37.652 8.81803 37.388 9.08203 37.156C9.34603 36.916 9.65403 36.728 10.006 36.592C10.358 36.456 10.726 36.388 11.11 36.388C11.606 36.388 12.042 36.484 12.418 36.676C12.794 36.86 13.086 37.12 13.294 37.456C13.51 37.784 13.618 38.168 13.618 38.608V43H12.526V41.776L12.73 41.848C12.594 42.104 12.41 42.328 12.178 42.52C11.946 42.712 11.674 42.864 11.362 42.976C11.05 43.088 10.71 43.144 10.342 43.144ZM17.0312 43L14.4992 36.532H15.7472L17.7752 42.004H17.3432L19.3832 36.532H20.6312L18.0872 43H17.0312ZM24.4884 43.144C23.8644 43.144 23.3084 42.996 22.8204 42.7C22.3324 42.404 21.9484 42 21.6684 41.488C21.3884 40.968 21.2484 40.388 21.2484 39.748C21.2484 39.1 21.3844 38.524 21.6564 38.02C21.9364 37.516 22.3124 37.12 22.7844 36.832C23.2644 36.536 23.8004 36.388 24.3924 36.388C24.8724 36.388 25.2964 36.476 25.6644 36.652C26.0404 36.82 26.3564 37.052 26.6124 37.348C26.8764 37.636 27.0764 37.968 27.2124 38.344C27.3564 38.712 27.4284 39.096 27.4284 39.496C27.4284 39.584 27.4204 39.684 27.4044 39.796C27.3964 39.9 27.3844 40 27.3684 40.096H22.0644V39.136H26.7204L26.1924 39.568C26.2644 39.152 26.2244 38.78 26.0724 38.452C25.9204 38.124 25.6964 37.864 25.4004 37.672C25.1044 37.48 24.7684 37.384 24.3924 37.384C24.0164 37.384 23.6724 37.48 23.3604 37.672C23.0484 37.864 22.8044 38.14 22.6284 38.5C22.4604 38.852 22.3924 39.272 22.4244 39.76C22.3924 40.232 22.4644 40.648 22.6404 41.008C22.8244 41.36 23.0804 41.636 23.4084 41.836C23.7444 42.028 24.1084 42.124 24.5004 42.124C24.9324 42.124 25.2964 42.024 25.5924 41.824C25.8884 41.624 26.1284 41.368 26.3124 41.056L27.2484 41.536C27.1204 41.832 26.9204 42.104 26.6484 42.352C26.3844 42.592 26.0684 42.784 25.7004 42.928C25.3404 43.072 24.9364 43.144 24.4884 43.144ZM31.8235 43.144C31.2155 43.144 30.6675 42.996 30.1795 42.7C29.6995 42.404 29.3195 42 29.0395 41.488C28.7595 40.976 28.6195 40.404 28.6195 39.772C28.6195 39.124 28.7595 38.548 29.0395 38.044C29.3195 37.532 29.6995 37.128 30.1795 36.832C30.6675 36.536 31.2155 36.388 31.8235 36.388C32.3595 36.388 32.8355 36.504 33.2515 36.736C33.6675 36.96 33.9955 37.264 34.2355 37.648L34.0555 37.924V33.916H35.1835V43H34.0915V41.62L34.2355 41.812C34.0115 42.236 33.6835 42.564 33.2515 42.796C32.8275 43.028 32.3515 43.144 31.8235 43.144ZM31.9195 42.064C32.3275 42.064 32.6915 41.964 33.0115 41.764C33.3315 41.564 33.5835 41.292 33.7675 40.948C33.9595 40.596 34.0555 40.204 34.0555 39.772C34.0555 39.332 33.9595 38.94 33.7675 38.596C33.5835 38.244 33.3315 37.968 33.0115 37.768C32.6915 37.568 32.3275 37.468 31.9195 37.468C31.5195 37.468 31.1555 37.572 30.8275 37.78C30.5075 37.98 30.2555 38.252 30.0715 38.596C29.8875 38.932 29.7955 39.324 29.7955 39.772C29.7955 40.204 29.8875 40.596 30.0715 40.948C30.2555 41.292 30.5075 41.564 30.8275 41.764C31.1475 41.964 31.5115 42.064 31.9195 42.064Z" fill="#7F879E"/>
</svg>
